# xmcd CD database file
#
# Track frame offsets:
#	150
#	13585
#	29622
#	41575
#	57017
#	74087
#	86455
#	99060
#	110872
#	124457
#	137210
#	148740
#	160862
#	176595
#	189067
#	200465
#	212802
#	223470
#	233200
#	244957
#	257795
#	271832
#	288920
#	299585
#	313945
#	323945
#
# Disc length: 4732 seconds
#
# Revision: 0
# Processed by: cddbd v1.5.2PL0 Copyright (c) Steve Scherf et al.
# Submitted via: CDex 1.79
#
DISCID=9f127a1a
DTITLE=Dave Brubeck - Dave Brubeck featuring Cal Tjader
DYEAR=1949
DGENRE=Jazz
TTITLE0=You stepped out of a dream
TTITLE1=Lullaby in rhythm
TTITLE2=Singing in the rain
TTITLE3=I'll remember April
TTITLE4=Body and soul
TTITLE5=Let's fall in love
TTITLE6=Laura
TTITLE7=Indiana
TTITLE8=Blue moon
TTITLE9=Tea for two
TTITLE10=Undecided
TTITLE11=That old black magic
TTITLE12=September song
TTITLE13=Sweet Georgia Brown
TTITLE14=Spring is her
TTITLE15='S wonderful
TTITLE16=Perfida
TTITLE17=Avalon
TTITLE18=I didn't know what time it was
TTITLE19=Always
TTITLE20=How high the moon?
TTITLE21=Squeeze me
TTITLE22=Heart and soul
TTITLE23=Too marvelous for words
TTITLE24=Laura [Octet version] 
TTITLE25=How high the moon? [Octet version] 
EXTD=YEAR: 1949
EXTT0=
EXTT1=
EXTT2=
EXTT3=
EXTT4=
EXTT5=
EXTT6=
EXTT7=
EXTT8=
EXTT9=
EXTT10=
EXTT11=
EXTT12=
EXTT13=
EXTT14=
EXTT15=
EXTT16=
EXTT17=
EXTT18=
EXTT19=
EXTT20=
EXTT21=
EXTT22=
EXTT23=
EXTT24=
EXTT25=
PLAYORDER=
